<?xml version="1.0" encoding="UTF-8"?>
<!DOCTYPE svg PUBLIC "-//W3C//DTD SVG 1.1//EN" "http://www.w3.org/Graphics/SVG/1.1/DTD/svg11.dtd">
<svg xmlns="http://www.w3.org/2000/svg" version="1.1" width="699px" height="705px" style="shape-rendering:geometricPrecision; text-rendering:geometricPrecision; image-rendering:optimizeQuality; fill-rule:evenodd; clip-rule:evenodd" xmlns:xlink="http://www.w3.org/1999/xlink">
<g><path style="opacity:0.95" fill="#feca3b" d="M 394.5,15.5 C 395.552,15.3505 396.552,15.5172 397.5,16C 418.643,34.4692 435.309,56.3025 447.5,81.5C 447.392,82.4419 447.059,83.2753 446.5,84C 427.521,87.8198 411.521,96.8198 398.5,111C 396.975,112.009 395.308,112.509 393.5,112.5C 393.174,80.0934 393.508,47.76 394.5,15.5 Z"/></g>
<g><path style="opacity:0.948" fill="#a5f04d" d="M 370.5,21.5 C 372.167,21.5 373.833,21.5 375.5,21.5C 374.432,54.8754 374.432,88.2088 375.5,121.5C 374.448,121.649 373.448,121.483 372.5,121C 358.979,105.574 342.313,95.2406 322.5,90C 321.484,89.4806 320.818,88.6473 320.5,87.5C 333.277,62.6398 349.944,40.6398 370.5,21.5 Z"/></g>
<g><path style="opacity:0.964" fill="#feca3b" d="M 450.5,99.5 C 453.05,99.5608 454.55,100.894 455,103.5C 463.331,125.49 468.831,148.156 471.5,171.5C 441.579,169.976 416.246,179.809 395.5,201C 393.866,201.494 392.199,201.66 390.5,201.5C 390.143,181.461 390.643,161.461 392,141.5C 398.758,130.745 406.925,121.245 416.5,113C 427.15,106.62 438.483,102.12 450.5,99.5 Z"/></g>
<g><path style="opacity:0.966" fill="#a5f04d" d="M 312.5,101.5 C 341.072,106.905 361.238,122.905 373,149.5C 373.5,168.164 373.667,186.83 373.5,205.5C 372.127,205.657 370.793,205.49 369.5,205C 361.864,198.185 353.864,191.852 345.5,186C 332.938,178.799 319.438,174.965 305,174.5C 300.824,174.808 296.658,175.142 292.5,175.5C 295.23,154.019 300.063,133.019 307,112.5C 308.551,108.672 310.384,105.005 312.5,101.5 Z"/></g>
<g><path style="opacity:0.962" fill="#fe5252" d="M 469.5,101.5 C 477.366,102.478 485.033,104.311 492.5,107C 517.431,120.976 532.931,142.142 539,170.5C 540.976,185.497 540.976,200.497 539,215.5C 538.439,216.022 537.772,216.355 537,216.5C 528.839,207.672 520.339,199.172 511.5,191C 506.258,188.43 501.258,185.43 496.5,182C 492.744,181.068 489.077,179.901 485.5,178.5C 483.16,154.482 477.994,131.148 470,108.5C 469.503,106.19 469.337,103.857 469.5,101.5 Z"/></g>
<g><path style="opacity:0.95" fill="#fe5352" d="M 289.5,102.5 C 292.167,102.5 294.833,102.5 297.5,102.5C 293.186,120.091 289.019,137.758 285,155.5C 284.197,162.536 283.197,169.536 282,176.5C 281.266,178.736 279.766,180.069 277.5,180.5C 268.141,175.324 259.141,169.491 250.5,163C 245.62,160.393 240.62,158.06 235.5,156C 234.941,155.275 234.608,154.442 234.5,153.5C 245.409,128.537 263.742,111.537 289.5,102.5 Z"/></g>
<g><path style="opacity:0.961" fill="#fe5252" d="M 176.5,157.5 C 185.173,157.334 193.84,157.5 202.5,158C 206.322,158.406 209.322,160.072 211.5,163C 194.8,175.519 182.8,191.685 175.5,211.5C 150.454,215.22 125.954,221.22 102,229.5C 100.732,229.384 99.3985,229.051 98,228.5C 100.413,209.345 108.913,193.345 123.5,180.5C 138.693,167.068 156.36,159.402 176.5,157.5 Z"/></g>
<g><path style="opacity:0.954" fill="#fe5352" d="M 229.5,167.5 C 232.947,167.814 236.28,168.648 239.5,170C 251.183,176.171 262.183,183.338 272.5,191.5C 273.485,193.098 273.651,194.765 273,196.5C 269.252,203.411 266.085,210.578 263.5,218C 239.315,214.269 214.981,211.769 190.5,210.5C 189.417,209.635 189.251,208.635 190,207.5C 193.333,202.167 196.667,196.833 200,191.5C 208.885,182.094 218.718,174.094 229.5,167.5 Z"/></g>
<g><path style="opacity:0.958" fill="#a5f04d" d="M 292.5,186.5 C 331.478,184.226 358.645,200.893 374,236.5C 374.5,252.163 374.667,267.83 374.5,283.5C 373.127,283.657 371.793,283.49 370.5,283C 346.264,258.101 322.764,232.601 300,206.5C 297.277,203.443 294.944,200.11 293,196.5C 292.502,193.183 292.335,189.85 292.5,186.5 Z"/></g>
<g><path style="opacity:0.969" fill="#feca3b" d="M 450.5,188.5 C 456.842,188.334 463.175,188.5 469.5,189C 470.416,189.374 471.25,189.874 472,190.5C 472.131,215.451 469.631,240.118 464.5,264.5C 436.559,264.806 412.892,274.973 393.5,295C 391.393,295.854 390.059,295.188 389.5,293C 390.005,271.775 390.839,250.609 392,229.5C 405.138,206.495 424.638,192.828 450.5,188.5 Z"/></g>
<g><path style="opacity:0.958" fill="#fe5252" d="M 478.5,266.5 C 480.016,264.814 481.35,262.981 482.5,261C 482.141,258.704 481.141,256.871 479.5,255.5C 485.031,235.579 487.365,215.245 486.5,194.5C 494.954,196.727 502.621,200.56 509.5,206C 518.757,214.732 525.757,224.899 530.5,236.5C 525.777,251.117 518.11,263.95 507.5,275C 504.833,275.667 502.167,275.667 499.5,275C 492.36,272.238 485.36,269.405 478.5,266.5 Z"/></g>
<g><path style="opacity:0.886" fill="#fe5352" d="M 282.5,209.5 C 284.262,209.357 285.929,209.691 287.5,210.5C 293.833,218.167 300.833,225.167 308.5,231.5C 310.698,234.094 311.698,237.094 311.5,240.5C 309.473,240.662 307.473,240.495 305.5,240C 296.46,235.673 287.294,231.84 278,228.5C 278.818,223.591 279.652,218.591 280.5,213.5C 280.803,211.886 281.47,210.552 282.5,209.5 Z"/></g>
<g><path style="opacity:0.968" fill="#feca3b" d="M 178.5,225.5 C 204.563,224.785 230.229,227.618 255.5,234C 254.752,261.714 264.585,285.214 285,304.5C 285.483,305.448 285.649,306.448 285.5,307.5C 264.831,307.667 244.164,307.5 223.5,307C 197.532,294.566 182.698,274.066 179,245.5C 178.5,238.842 178.334,232.175 178.5,225.5 Z"/></g>
<g><path style="opacity:0.966" fill="#feca3b" d="M 156.5,229.5 C 158.144,229.286 159.644,229.62 161,230.5C 159.613,261.029 169.946,286.696 192,307.5C 192.483,308.448 192.649,309.448 192.5,310.5C 172.504,309.952 152.504,309.452 132.5,309C 108.425,296.548 94.0919,276.881 89.5,250C 89.5852,248.893 89.9186,247.893 90.5,247C 111.987,238.774 133.987,232.941 156.5,229.5 Z"/></g>
<g><path style="opacity:0.952" fill="#feca3b" d="M 273.5,240.5 C 282.141,241.811 290.474,244.311 298.5,248C 320.799,257.981 340.632,271.481 358,288.5C 361.921,294.426 366.588,299.759 372,304.5C 372.854,306.607 372.188,307.941 370,308.5C 325.065,319.202 294.065,303.536 277,261.5C 274.968,254.642 273.801,247.642 273.5,240.5 Z"/></g>
<g><path style="opacity:0.953" fill="#fe5252" d="M 546.5,242.5 C 566.548,248.704 581.715,261.038 592,279.5C 596.032,287.758 598.532,296.425 599.5,305.5C 586.806,302.102 574.14,298.602 561.5,295C 550.994,292.309 540.328,290.642 529.5,290C 521.642,289.994 519.475,286.494 523,279.5C 531.483,267.53 539.317,255.196 546.5,242.5 Z"/></g>
<g><path style="opacity:0.948" fill="#feca3b" d="M 75.5,254.5 C 77.288,254.215 78.9547,254.548 80.5,255.5C 85.8886,274.284 95.3886,290.618 109,304.5C 109.49,305.793 109.657,307.127 109.5,308.5C 77.016,308.437 44.6827,308.437 12.5,308.5C 12.372,306.345 12.872,304.345 14,302.5C 31.774,282.879 52.274,266.879 75.5,254.5 Z"/></g>
<g><path style="opacity:0.71" fill="#d63746" d="M 479.5,255.5 C 481.141,256.871 482.141,258.704 482.5,261C 481.35,262.981 480.016,264.814 478.5,266.5C 477.861,265.903 477.528,265.07 477.5,264C 478.617,261.269 479.283,258.435 479.5,255.5 Z"/></g>
<g><path style="opacity:0.952" fill="#feca3b" d="M 450.5,280.5 C 453.167,280.5 455.833,280.5 458.5,280.5C 447.515,319.665 426.182,351.832 394.5,377C 393.207,377.49 391.873,377.657 390.5,377.5C 390.119,360.692 389.786,343.859 389.5,327C 401.671,300.648 422.004,285.148 450.5,280.5 Z"/></g>
<g><path style="opacity:0.907" fill="#fd5352" d="M 475.5,312.5 C 471.225,311.75 467.891,313.083 465.5,316.5C 464.378,314.712 464.211,312.712 465,310.5C 469.654,302.553 473.154,294.053 475.5,285C 482.331,283.964 488.498,285.464 494,289.5C 494.667,291.5 494.667,293.5 494,295.5C 487.637,301.033 481.471,306.699 475.5,312.5 Z"/></g>
<g><path style="opacity:0.953" fill="#a5f14d" d="M 501.5,302.5 C 504.545,302.508 507.545,302.841 510.5,303.5C 513.186,340.994 497.519,367.828 463.5,384C 447.968,384.189 432.468,384.689 417,385.5C 414.812,384.941 414.146,383.607 415,381.5C 422.135,373.364 429.635,365.53 437.5,358C 458.731,339.262 480.064,320.762 501.5,302.5 Z"/></g>
<g><path style="opacity:0.966" fill="#a5f14d" d="M 527.5,303.5 C 551.545,306.009 574.878,311.509 597.5,320C 598.452,330.881 595.952,341.047 590,350.5C 580.807,364.679 568.641,375.512 553.5,383C 534.17,383.5 514.836,383.667 495.5,383.5C 495.343,382.127 495.51,380.793 496,379.5C 506.643,370.508 514.643,359.508 520,346.5C 525.559,332.555 528.059,318.222 527.5,303.5 Z"/></g>
<g><path style="opacity:0.676" fill="#aee44e" d="M 475.5,312.5 C 473.328,315.148 470.495,316.814 467,317.5C 466.235,317.43 465.735,317.097 465.5,316.5C 467.891,313.083 471.225,311.75 475.5,312.5 Z"/></g>
<g><path style="opacity:0.953" fill="#a5f14d" d="M 86.5,321.5 C 94.3886,321.924 102.389,322.257 110.5,322.5C 110.643,324.262 110.309,325.929 109.5,327.5C 94.9027,340.02 85.4027,355.686 81,374.5C 80.5917,376.41 79.4251,377.41 77.5,377.5C 65.2714,372.095 53.9381,365.262 43.5,357C 32.397,347.9 21.897,338.067 12,327.5C 11.5065,325.866 11.3398,324.199 11.5,322.5C 36.6722,322.831 61.6722,322.498 86.5,321.5 Z"/></g>
<g><path style="opacity:0.991" fill="#fe5252" d="M 319.5,322.5 C 338.17,322.333 356.836,322.5 375.5,323C 376,323.5 376.5,324 377,324.5C 377.826,344.407 377.659,364.24 376.5,384C 356.927,384.826 337.427,384.659 318,383.5C 317.333,363.833 317.333,344.167 318,324.5C 318.717,323.956 319.217,323.289 319.5,322.5 Z"/></g>
<g><path style="opacity:0.965" fill="#a5f04d" d="M 140.5,323.5 C 158.845,323.373 177.178,323.707 195.5,324.5C 195.657,325.873 195.49,327.207 195,328.5C 173.769,348.827 163.436,373.827 164,403.5C 148.972,402.965 134.138,400.465 119.5,396C 111.131,393.49 102.797,390.823 94.5,388C 92.8198,387.653 91.8198,386.653 91.5,385C 95.7465,364.152 106.08,347.152 122.5,334C 128.689,330.604 134.689,327.104 140.5,323.5 Z"/></g>
<g><path style="opacity:0.956" fill="#a5f04d" d="M 228.5,323.5 C 244.167,323.5 259.833,323.5 275.5,323.5C 275.66,325.199 275.494,326.866 275,328.5C 248.487,354.346 221.32,379.512 193.5,404C 189.036,405.74 184.536,405.907 180,404.5C 178.318,366.491 194.485,339.491 228.5,323.5 Z"/></g>
<g><path style="opacity:0.949" fill="#a5f14d" d="M 615.5,330.5 C 639.995,341.853 661.495,357.519 680,377.5C 681.879,379.527 683.046,381.86 683.5,384.5C 650.833,384.5 618.167,384.5 585.5,384.5C 585.343,383.127 585.51,381.793 586,380.5C 601.073,366.927 610.906,350.26 615.5,330.5 Z"/></g>
<g><path style="opacity:0.95" fill="#feca3b" d="M 297.5,333.5 C 299.124,333.36 300.29,334.027 301,335.5C 312.05,373.224 301.216,402.057 268.5,422C 257.528,427.713 245.862,430.879 233.5,431.5C 234.428,424.626 236.262,417.959 239,411.5C 247.208,393.413 257.208,376.413 269,360.5C 278.287,351.137 287.787,342.137 297.5,333.5 Z"/></g>
<g><path style="opacity:0.873" fill="#fe5352" d="M 224.5,399.5 C 225.833,399.5 227.167,399.5 228.5,399.5C 225.506,409.483 222.506,419.483 219.5,429.5C 213.148,429.745 207.148,428.412 201.5,425.5C 200.231,423.305 200.231,421.139 201.5,419C 209.99,413.333 217.656,406.833 224.5,399.5 Z"/></g>
<g><path style="opacity:0.952" fill="#feca3b" d="M 350.5,399.5 C 359.513,399.715 368.513,400.215 377.5,401C 404.819,415.113 419.486,437.613 421.5,468.5C 389.375,459.856 361.542,443.856 338,420.5C 334.079,414.574 329.412,409.241 324,404.5C 323.51,403.207 323.343,401.873 323.5,400.5C 332.682,400.827 341.682,400.493 350.5,399.5 Z"/></g>
<g><path style="opacity:0.948" fill="#feca3b" d="M 621.5,399.5 C 641.537,400.212 661.87,400.545 682.5,400.5C 682.657,401.873 682.49,403.207 682,404.5C 665.24,422.262 646.406,437.429 625.5,450C 621.781,452.364 617.781,453.864 613.5,454.5C 610.391,434.94 601.557,418.606 587,405.5C 585.991,403.975 585.491,402.308 585.5,400.5C 597.678,400.828 609.678,400.495 621.5,399.5 Z"/></g>
<g><path style="opacity:0.955" fill="#fe5352" d="M 142.5,413.5 C 144.29,414.997 146.456,415.664 149,415.5C 150.707,415.492 152.207,415.158 153.5,414.5C 158.893,415.346 164.227,416.512 169.5,418C 170.576,419.726 170.743,421.559 170,423.5C 165.826,430.516 161.159,437.183 156,443.5C 152.937,450.175 149.77,456.841 146.5,463.5C 144.926,464.631 143.259,464.798 141.5,464C 119.158,454.326 103.658,438.159 95,415.5C 93.3638,410.625 92.5305,405.625 92.5,400.5C 108.948,405.649 125.614,409.982 142.5,413.5 Z"/></g>
<g><path style="opacity:0.969" fill="#feca3b" d="M 418.5,400.5 C 434.17,400.333 449.837,400.5 465.5,401C 496.205,414.178 512.205,437.678 513.5,471.5C 513.056,475.163 512.722,478.829 512.5,482.5C 487.586,482.442 462.92,479.942 438.5,475C 436.625,459.007 432.458,443.507 426,428.5C 420.809,419.637 414.476,411.637 407,404.5C 406.517,403.552 406.351,402.552 406.5,401.5C 410.702,401.817 414.702,401.483 418.5,400.5 Z"/></g>
<g><path style="opacity:0.965" fill="#feca3b" d="M 495.5,401.5 C 516.259,401.023 536.925,401.523 557.5,403C 575.285,413.417 587.785,428.25 595,447.5C 596.677,453.049 597.51,458.715 597.5,464.5C 574.575,473.148 550.908,478.814 526.5,481.5C 527.349,456.206 520.182,433.54 505,413.5C 502.297,410.462 499.297,407.795 496,405.5C 495.51,404.207 495.343,402.873 495.5,401.5 Z"/></g>
<g><path style="opacity:0.481" fill="#ade54e" d="M 142.5,413.5 C 146.198,413.552 149.865,413.886 153.5,414.5C 152.207,415.158 150.707,415.492 149,415.5C 146.456,415.664 144.29,414.997 142.5,413.5 Z"/></g>
<g><path style="opacity:0.97" fill="#feca3b" d="M 299.5,413.5 C 301.167,413.5 302.833,413.5 304.5,413.5C 304.667,433.836 304.5,454.169 304,474.5C 287,507.501 260,522.168 223,518.5C 222.173,493.103 224.84,468.103 231,443.5C 258.315,443.42 281.148,433.42 299.5,413.5 Z"/></g>
<g><path style="opacity:0.954" fill="#95d844" d="M 313.5,425.5 C 314.873,425.343 316.207,425.51 317.5,426C 324.946,433.446 332.446,440.946 340,448.5C 356.631,467.466 373.631,486.133 391,504.5C 394.978,509.086 396.478,514.253 395.5,520C 356.76,524.208 329.594,508.375 314,472.5C 313.667,456.687 313.501,441.02 313.5,425.5 Z"/></g>
<g><path style="opacity:0.956" fill="#fe5352" d="M 181.5,431.5 C 183.199,431.34 184.866,431.506 186.5,432C 193.601,436.135 201.101,439.301 209,441.5C 207.701,448.763 206.368,456.096 205,463.5C 203.107,479.777 201.773,496.111 201,512.5C 200.481,513.516 199.647,514.182 198.5,514.5C 187.351,509.832 177.851,502.832 170,493.5C 165.667,487.5 161.333,481.5 157,475.5C 156.333,473.5 156.333,471.5 157,469.5C 159,465.5 161,461.5 163,457.5C 169.03,448.653 175.196,439.986 181.5,431.5 Z"/></g>
<g><path style="opacity:0.869" fill="#fe5252" d="M 389.5,476.5 C 391.199,476.34 392.866,476.506 394.5,477C 402.611,480.239 410.778,483.406 419,486.5C 419.031,492.879 417.864,499.046 415.5,505C 411.328,505.868 408.162,504.368 406,500.5C 401.01,494.54 396.01,488.54 391,482.5C 389.872,480.655 389.372,478.655 389.5,476.5 Z"/></g>
<g><path style="opacity:0.958" fill="#fe5352" d="M 591.5,480.5 C 594.167,480.5 596.833,480.5 599.5,480.5C 595.587,505.826 582.587,524.992 560.5,538C 537.151,550.502 512.485,554.002 486.5,548.5C 486.215,546.712 486.548,545.045 487.5,543.5C 496.812,537.355 504.645,529.688 511,520.5C 516.256,512.716 520.756,504.549 524.5,496C 539.343,494.289 554.01,491.622 568.5,488C 576.525,486.158 584.191,483.658 591.5,480.5 Z"/></g>
<g><path style="opacity:0.955" fill="#fe5352" d="M 433.5,489.5 C 457.645,493.726 481.979,496.393 506.5,497.5C 506.457,502.597 504.957,507.264 502,511.5C 493.761,522.071 483.928,530.904 472.5,538C 470.232,539.552 467.732,540.385 465,540.5C 451.06,534.735 438.226,527.068 426.5,517.5C 424.956,512.227 426.122,507.56 430,503.5C 431.481,498.894 432.648,494.227 433.5,489.5 Z"/></g>
<g><path style="opacity:0.958" fill="#fe5352" d="M 149.5,498.5 C 151.288,498.215 152.955,498.548 154.5,499.5C 167.049,515.538 182.882,527.205 202,534.5C 203.749,545.49 205.415,556.49 207,567.5C 210.556,581.735 214.723,595.735 219.5,609.5C 209.224,609.348 199.557,606.848 190.5,602C 161.66,582.321 147.327,554.988 147.5,520C 147.865,512.779 148.532,505.613 149.5,498.5 Z"/></g>
<g><path style="opacity:0.967" fill="#95d844" d="M 388.5,573.5 C 387.326,574.514 386.66,575.847 386.5,577.5C 385.883,577.611 385.383,577.944 385,578.5C 384.502,581.482 384.335,584.482 384.5,587.5C 382.898,594.806 380.398,601.806 377,608.5C 359.182,607.263 343.849,600.263 331,587.5C 324.882,580.044 319.549,572.044 315,563.5C 314.5,544.17 314.333,524.836 314.5,505.5C 315.552,505.351 316.552,505.517 317.5,506C 338.312,528.064 363.978,538.564 394.5,537.5C 393.654,549.726 391.654,561.726 388.5,573.5 Z"/></g>
<g><path style="opacity:0.965" fill="#feca3b" d="M 299.5,506.5 C 300.833,506.5 302.167,506.5 303.5,506.5C 303.667,525.836 303.5,545.17 303,564.5C 290.724,588.831 271.057,603.497 244,608.5C 242.11,608.215 240.777,607.215 240,605.5C 231.382,583.244 225.882,560.244 223.5,536.5C 251.473,538.011 275.806,529.511 296.5,511C 297.883,509.729 298.883,508.229 299.5,506.5 Z"/></g>
<g><path style="opacity:0.949" fill="#fe5352" d="M 411.5,533.5 C 419.178,535.508 425.845,539.341 431.5,545C 438.072,549.418 445.072,553.085 452.5,556C 455.006,557.516 455.84,559.682 455,562.5C 443.211,590.979 422.044,607.312 391.5,611.5C 393.459,601.912 396.292,592.579 400,583.5C 404.375,566.896 408.208,550.229 411.5,533.5 Z"/></g>
<g><path style="opacity:0.447" fill="#c65745" d="M 388.5,573.5 C 388.101,577.116 387.101,580.45 385.5,583.5C 385.517,581.435 385.85,579.435 386.5,577.5C 386.66,575.847 387.326,574.514 388.5,573.5 Z"/></g>
<g><path style="opacity:0.518" fill="#b09244" d="M 386.5,577.5 C 385.85,579.435 385.517,581.435 385.5,583.5C 385.768,585.099 385.434,586.432 384.5,587.5C 384.335,584.482 384.502,581.482 385,578.5C 385.383,577.944 385.883,577.611 386.5,577.5 Z"/></g>
<g><path style="opacity:0.951" fill="#94d943" d="M 315.5,587.5 C 317.308,587.491 318.975,587.991 320.5,589C 333.618,604.06 349.951,613.727 369.5,618C 370.059,618.725 370.392,619.558 370.5,620.5C 362.926,637.322 353.093,652.656 341,666.5C 333.959,673.709 326.792,680.709 319.5,687.5C 318.311,688.429 316.978,688.762 315.5,688.5C 316.74,654.824 316.74,621.157 315.5,587.5 Z"/></g>
<g><path style="opacity:0.95" fill="#feca3b" d="M 296.5,596.5 C 298.167,596.5 299.833,596.5 301.5,596.5C 301.5,628.167 301.5,659.833 301.5,691.5C 300.127,691.657 298.793,691.49 297.5,691C 276.145,673.982 259.645,653.149 248,628.5C 247.506,626.866 247.34,625.199 247.5,623.5C 263.856,620.154 278.523,613.32 291.5,603C 293.539,601.074 295.206,598.907 296.5,596.5 Z"/></g>
</svg>
