<?xml version="1.0" encoding="UTF-8"?>
<!DOCTYPE svg PUBLIC "-//W3C//DTD SVG 1.1//EN" "http://www.w3.org/Graphics/SVG/1.1/DTD/svg11.dtd">
<svg xmlns="http://www.w3.org/2000/svg" version="1.1" width="672px" height="676px" style="shape-rendering:geometricPrecision; text-rendering:geometricPrecision; image-rendering:optimizeQuality; fill-rule:evenodd; clip-rule:evenodd" xmlns:xlink="http://www.w3.org/1999/xlink">
<g><path style="opacity:0.95" fill="#fefffe" d="M 382.5,-0.5 C 383.5,-0.5 384.5,-0.5 385.5,-0.5C 401.656,14.8244 415.823,31.8244 428,50.5C 431.03,55.2263 433.53,60.2263 435.5,65.5C 435.392,66.4419 435.059,67.2753 434.5,68C 415.521,71.8198 399.521,80.8198 386.5,95C 384.975,96.0086 383.308,96.5086 381.5,96.5C 381.174,64.0934 381.508,31.76 382.5,-0.5 Z"/></g>
<g><path style="opacity:0.948" fill="#e0d4f9" d="M 358.5,5.5 C 360.167,5.5 361.833,5.5 363.5,5.5C 362.432,38.8754 362.432,72.2088 363.5,105.5C 362.448,105.649 361.448,105.483 360.5,105C 346.979,89.574 330.313,79.2406 310.5,74C 309.484,73.4806 308.818,72.6473 308.5,71.5C 321.277,46.6398 337.944,24.6398 358.5,5.5 Z"/></g>
<g><path style="opacity:0.964" fill="#fefffe" d="M 438.5,83.5 C 441.05,83.5608 442.55,84.8941 443,87.5C 451.331,109.49 456.831,132.156 459.5,155.5C 429.579,153.976 404.246,163.809 383.5,185C 381.866,185.494 380.199,185.66 378.5,185.5C 378.143,165.461 378.643,145.461 380,125.5C 386.758,114.745 394.925,105.245 404.5,97C 415.15,90.6202 426.483,86.1202 438.5,83.5 Z"/></g>
<g><path style="opacity:0.962" fill="#906af0" d="M 458.5,84.5 C 466.366,85.478 474.033,87.3114 481.5,90C 506.431,103.976 521.931,125.142 528,153.5C 529.976,168.497 529.976,183.497 528,198.5C 527.439,199.022 526.772,199.355 526,199.5C 517.839,190.672 509.339,182.172 500.5,174C 495.258,171.43 490.258,168.43 485.5,165C 481.744,164.068 478.077,162.901 474.5,161.5C 472.16,137.482 466.994,114.148 459,91.5C 458.503,89.1902 458.337,86.8568 458.5,84.5 Z"/></g>
<g><path style="opacity:0.95" fill="#906af0" d="M 278.5,85.5 C 281.167,85.5 283.833,85.5 286.5,85.5C 282.186,103.091 278.019,120.758 274,138.5C 273.197,145.536 272.197,152.536 271,159.5C 270.266,161.736 268.766,163.069 266.5,163.5C 257.141,158.324 248.141,152.491 239.5,146C 234.62,143.393 229.62,141.06 224.5,139C 223.941,138.275 223.608,137.442 223.5,136.5C 234.409,111.537 252.742,94.5371 278.5,85.5 Z"/></g>
<g><path style="opacity:0.965" fill="#e0d4f9" d="M 300.5,85.5 C 329.072,90.9049 349.238,106.905 361,133.5C 361.5,152.164 361.667,170.83 361.5,189.5C 360.127,189.657 358.793,189.49 357.5,189C 349.864,182.185 341.864,175.852 333.5,170C 320.938,162.799 307.438,158.965 293,158.5C 288.824,158.808 284.658,159.142 280.5,159.5C 283.23,138.019 288.063,117.019 295,96.5C 296.551,92.6719 298.384,89.0052 300.5,85.5 Z"/></g>
<g><path style="opacity:0.96" fill="#906af0" d="M 165.5,140.5 C 174.173,140.334 182.84,140.5 191.5,141C 195.322,141.406 198.322,143.072 200.5,146C 183.8,158.519 171.8,174.685 164.5,194.5C 139.454,198.22 114.954,204.22 91,212.5C 89.7318,212.384 88.3985,212.051 87,211.5C 89.4126,192.345 97.9126,176.345 112.5,163.5C 127.693,150.068 145.36,142.402 165.5,140.5 Z"/></g>
<g><path style="opacity:0.954" fill="#906af0" d="M 218.5,150.5 C 221.947,150.814 225.28,151.648 228.5,153C 240.183,159.171 251.183,166.338 261.5,174.5C 262.485,176.098 262.651,177.765 262,179.5C 258.252,186.411 255.085,193.578 252.5,201C 228.315,197.269 203.981,194.769 179.5,193.5C 178.417,192.635 178.251,191.635 179,190.5C 182.333,185.167 185.667,179.833 189,174.5C 197.885,165.094 207.718,157.094 218.5,150.5 Z"/></g>
<g><path style="opacity:0.953" fill="#e0d4f9" d="M 280.5,170.5 C 319.478,168.226 346.645,184.893 362,220.5C 362.5,236.163 362.667,251.83 362.5,267.5C 361.127,267.657 359.793,267.49 358.5,267C 334.264,242.101 310.764,216.601 288,190.5C 285.277,187.443 282.944,184.11 281,180.5C 280.502,177.183 280.335,173.85 280.5,170.5 Z"/></g>
<g><path style="opacity:0.969" fill="#fefffe" d="M 438.5,172.5 C 444.842,172.334 451.175,172.5 457.5,173C 458.416,173.374 459.25,173.874 460,174.5C 460.131,199.451 457.631,224.118 452.5,248.5C 424.559,248.806 400.892,258.973 381.5,279C 379.393,279.854 378.059,279.188 377.5,277C 378.005,255.775 378.839,234.609 380,213.5C 393.138,190.495 412.638,176.828 438.5,172.5 Z"/></g>
<g><path style="opacity:0.956" fill="#906af0" d="M 475.5,177.5 C 483.954,179.727 491.621,183.56 498.5,189C 506.517,197.341 513.351,206.508 519,216.5C 519.667,218.5 519.667,220.5 519,222.5C 513.886,235.906 506.386,247.74 496.5,258C 493.833,258.667 491.167,258.667 488.5,258C 481.316,255.162 474.15,252.329 467,249.5C 469.843,234.284 472.51,218.951 475,203.5C 475.5,194.84 475.666,186.173 475.5,177.5 Z"/></g>
<g><path style="opacity:0.886" fill="#906af0" d="M 271.5,192.5 C 273.262,192.357 274.929,192.691 276.5,193.5C 282.833,201.167 289.833,208.167 297.5,214.5C 299.698,217.094 300.698,220.094 300.5,223.5C 298.473,223.662 296.473,223.495 294.5,223C 285.46,218.673 276.294,214.84 267,211.5C 267.818,206.591 268.652,201.591 269.5,196.5C 269.803,194.886 270.47,193.552 271.5,192.5 Z"/></g>
<g><path style="opacity:0.968" fill="#fefffe" d="M 166.5,209.5 C 192.563,208.785 218.229,211.618 243.5,218C 242.752,245.714 252.585,269.214 273,288.5C 273.483,289.448 273.649,290.448 273.5,291.5C 252.831,291.667 232.164,291.5 211.5,291C 185.532,278.566 170.698,258.066 167,229.5C 166.5,222.842 166.334,216.175 166.5,209.5 Z"/></g>
<g><path style="opacity:0.966" fill="#fefffe" d="M 144.5,213.5 C 146.144,213.286 147.644,213.62 149,214.5C 147.613,245.029 157.946,270.696 180,291.5C 180.483,292.448 180.649,293.448 180.5,294.5C 160.504,293.952 140.504,293.452 120.5,293C 96.4252,280.548 82.0919,260.881 77.5,234C 77.5852,232.893 77.9186,231.893 78.5,231C 99.987,222.774 121.987,216.941 144.5,213.5 Z"/></g>
<g><path style="opacity:0.952" fill="#fefffe" d="M 261.5,224.5 C 270.141,225.811 278.474,228.311 286.5,232C 308.799,241.981 328.632,255.481 346,272.5C 349.921,278.426 354.588,283.759 360,288.5C 360.854,290.607 360.188,291.941 358,292.5C 313.065,303.202 282.065,287.536 265,245.5C 262.968,238.642 261.801,231.642 261.5,224.5 Z"/></g>
<g><path style="opacity:0.952" fill="#906af0" d="M 535.5,225.5 C 555.548,231.704 570.715,244.038 581,262.5C 585.032,270.758 587.532,279.425 588.5,288.5C 575.806,285.102 563.14,281.602 550.5,278C 539.994,275.309 529.328,273.642 518.5,273C 510.642,272.994 508.475,269.494 512,262.5C 520.483,250.53 528.317,238.196 535.5,225.5 Z"/></g>
<g><path style="opacity:0.948" fill="#fefffe" d="M 63.5,238.5 C 65.288,238.215 66.9547,238.548 68.5,239.5C 73.8886,258.284 83.3886,274.618 97,288.5C 97.49,289.793 97.6567,291.127 97.5,292.5C 65.016,292.437 32.6827,292.437 0.5,292.5C 0.372013,290.345 0.872013,288.345 2,286.5C 19.774,266.879 40.274,250.879 63.5,238.5 Z"/></g>
<g><path style="opacity:0.952" fill="#fefffe" d="M 438.5,264.5 C 441.167,264.5 443.833,264.5 446.5,264.5C 435.515,303.665 414.182,335.832 382.5,361C 381.207,361.49 379.873,361.657 378.5,361.5C 378.119,344.692 377.786,327.859 377.5,311C 389.671,284.648 410.004,269.148 438.5,264.5 Z"/></g>
<g><path style="opacity:0.892" fill="#906af0" d="M 464.5,267.5 C 471.332,266.962 477.499,268.629 483,272.5C 483.667,274.5 483.667,276.5 483,278.5C 475.5,285.333 468,292.167 460.5,299C 454.426,301.929 452.259,300.096 454,293.5C 458.756,285.41 462.256,276.744 464.5,267.5 Z"/></g>
<g><path style="opacity:0.953" fill="#e0d4f9" d="M 489.5,286.5 C 492.545,286.508 495.545,286.841 498.5,287.5C 501.186,324.994 485.519,351.828 451.5,368C 435.968,368.189 420.468,368.689 405,369.5C 402.812,368.941 402.146,367.607 403,365.5C 410.135,357.364 417.635,349.53 425.5,342C 446.731,323.262 468.064,304.762 489.5,286.5 Z"/></g>
<g><path style="opacity:0.966" fill="#e0d4f9" d="M 515.5,287.5 C 539.545,290.009 562.878,295.509 585.5,304C 586.452,314.881 583.952,325.047 578,334.5C 568.807,348.679 556.641,359.512 541.5,367C 522.17,367.5 502.836,367.667 483.5,367.5C 483.343,366.127 483.51,364.793 484,363.5C 494.643,354.508 502.643,343.508 508,330.5C 513.559,316.555 516.059,302.222 515.5,287.5 Z"/></g>
<g><path style="opacity:0.953" fill="#e0d4f9" d="M -0.5,311.5 C -0.5,309.833 -0.5,308.167 -0.5,306.5C 32.648,306.283 65.648,306.283 98.5,306.5C 98.6427,308.262 98.3094,309.929 97.5,311.5C 82.9027,324.02 73.4027,339.686 69,358.5C 68.5917,360.41 67.4251,361.41 65.5,361.5C 55.2204,357.028 45.5537,351.528 36.5,345C 23.3995,334.735 11.0661,323.569 -0.5,311.5 Z"/></g>
<g><path style="opacity:0.991" fill="#906af0" d="M 307.5,306.5 C 326.17,306.333 344.836,306.5 363.5,307C 364,307.5 364.5,308 365,308.5C 365.826,328.407 365.659,348.24 364.5,368C 344.927,368.826 325.427,368.659 306,367.5C 305.333,347.833 305.333,328.167 306,308.5C 306.717,307.956 307.217,307.289 307.5,306.5 Z"/></g>
<g><path style="opacity:0.965" fill="#e0d4f9" d="M 128.5,307.5 C 146.845,307.373 165.178,307.707 183.5,308.5C 183.657,309.873 183.49,311.207 183,312.5C 161.769,332.827 151.436,357.827 152,387.5C 136.972,386.965 122.138,384.465 107.5,380C 99.1308,377.49 90.7975,374.823 82.5,372C 80.8198,371.653 79.8198,370.653 79.5,369C 83.7465,348.152 94.0798,331.152 110.5,318C 116.689,314.604 122.689,311.104 128.5,307.5 Z"/></g>
<g><path style="opacity:0.955" fill="#e0d4f9" d="M 216.5,307.5 C 232.167,307.5 247.833,307.5 263.5,307.5C 263.66,309.199 263.494,310.866 263,312.5C 236.487,338.346 209.32,363.512 181.5,388C 177.036,389.74 172.536,389.907 168,388.5C 166.318,350.491 182.485,323.491 216.5,307.5 Z"/></g>
<g><path style="opacity:0.949" fill="#e0d4f9" d="M 671.5,365.5 C 671.5,366.5 671.5,367.5 671.5,368.5C 638.833,368.5 606.167,368.5 573.5,368.5C 573.343,367.127 573.51,365.793 574,364.5C 588.274,351.284 597.941,335.284 603,316.5C 603.388,315.572 604.055,314.905 605,314.5C 630.589,327.044 652.756,344.044 671.5,365.5 Z"/></g>
<g><path style="opacity:0.95" fill="#fefffe" d="M 285.5,317.5 C 287.124,317.36 288.29,318.027 289,319.5C 300.05,357.224 289.216,386.057 256.5,406C 245.528,411.713 233.862,414.879 221.5,415.5C 222.428,408.626 224.262,401.959 227,395.5C 235.208,377.413 245.208,360.413 257,344.5C 266.287,335.137 275.787,326.137 285.5,317.5 Z"/></g>
<g><path style="opacity:0.873" fill="#906af0" d="M 213.5,382.5 C 214.833,382.5 216.167,382.5 217.5,382.5C 214.506,392.483 211.506,402.483 208.5,412.5C 202.148,412.745 196.148,411.412 190.5,408.5C 189.231,406.305 189.231,404.139 190.5,402C 198.99,396.333 206.656,389.833 213.5,382.5 Z"/></g>
<g><path style="opacity:0.952" fill="#906af0" d="M 81.5,383.5 C 93.775,387.09 106.108,390.59 118.5,394C 127.769,395.771 137.102,397.104 146.5,398C 150.804,398.792 154.971,399.958 159,401.5C 159.706,403.971 159.373,406.305 158,408.5C 154.054,414.779 149.721,420.779 145,426.5C 141.937,433.175 138.77,439.841 135.5,446.5C 133.926,447.631 132.259,447.798 130.5,447C 104.949,436.123 88.7828,417.29 82,390.5C 81.5034,388.19 81.3367,385.857 81.5,383.5 Z"/></g>
<g><path style="opacity:0.952" fill="#fefffe" d="M 338.5,383.5 C 347.513,383.715 356.513,384.215 365.5,385C 392.819,399.113 407.486,421.613 409.5,452.5C 377.375,443.856 349.542,427.856 326,404.5C 322.079,398.574 317.412,393.241 312,388.5C 311.51,387.207 311.343,385.873 311.5,384.5C 320.682,384.827 329.682,384.493 338.5,383.5 Z"/></g>
<g><path style="opacity:0.948" fill="#fefffe" d="M 609.5,383.5 C 629.537,384.212 649.87,384.545 670.5,384.5C 670.657,385.873 670.49,387.207 670,388.5C 653.24,406.262 634.406,421.429 613.5,434C 609.781,436.364 605.781,437.864 601.5,438.5C 598.391,418.94 589.557,402.606 575,389.5C 573.991,387.975 573.491,386.308 573.5,384.5C 585.678,384.828 597.678,384.495 609.5,383.5 Z"/></g>
<g><path style="opacity:0.969" fill="#fefffe" d="M 406.5,384.5 C 422.17,384.333 437.837,384.5 453.5,385C 484.205,398.178 500.205,421.678 501.5,455.5C 501.056,459.163 500.722,462.829 500.5,466.5C 475.586,466.442 450.92,463.942 426.5,459C 424.625,443.007 420.458,427.507 414,412.5C 408.809,403.637 402.476,395.637 395,388.5C 394.517,387.552 394.351,386.552 394.5,385.5C 398.702,385.817 402.702,385.483 406.5,384.5 Z"/></g>
<g><path style="opacity:0.965" fill="#fefffe" d="M 483.5,385.5 C 504.259,385.023 524.925,385.523 545.5,387C 563.285,397.417 575.785,412.25 583,431.5C 584.677,437.049 585.51,442.715 585.5,448.5C 562.575,457.148 538.908,462.814 514.5,465.5C 515.349,440.206 508.182,417.54 493,397.5C 490.297,394.462 487.297,391.795 484,389.5C 483.51,388.207 483.343,386.873 483.5,385.5 Z"/></g>
<g><path style="opacity:0.97" fill="#fefffe" d="M 287.5,397.5 C 289.167,397.5 290.833,397.5 292.5,397.5C 292.667,417.836 292.5,438.169 292,458.5C 275,491.501 248,506.168 211,502.5C 210.173,477.103 212.84,452.103 219,427.5C 246.315,427.42 269.148,417.42 287.5,397.5 Z"/></g>
<g><path style="opacity:0.953" fill="#e0d4f9" d="M 301.5,409.5 C 302.873,409.343 304.207,409.51 305.5,410C 312.946,417.446 320.446,424.946 328,432.5C 344.631,451.466 361.631,470.133 379,488.5C 382.978,493.086 384.478,498.253 383.5,504C 344.76,508.208 317.594,492.375 302,456.5C 301.667,440.687 301.501,425.02 301.5,409.5 Z"/></g>
<g><path style="opacity:0.956" fill="#906af0" d="M 170.5,414.5 C 172.199,414.34 173.866,414.506 175.5,415C 182.601,419.135 190.101,422.301 198,424.5C 196.701,431.763 195.368,439.096 194,446.5C 192.107,462.777 190.773,479.111 190,495.5C 189.481,496.516 188.647,497.182 187.5,497.5C 176.351,492.832 166.851,485.832 159,476.5C 154.667,470.5 150.333,464.5 146,458.5C 145.333,456.5 145.333,454.5 146,452.5C 148,448.5 150,444.5 152,440.5C 158.03,431.653 164.196,422.986 170.5,414.5 Z"/></g>
<g><path style="opacity:0.869" fill="#906af0" d="M 378.5,459.5 C 380.199,459.34 381.866,459.506 383.5,460C 391.611,463.239 399.778,466.406 408,469.5C 408.031,475.879 406.864,482.046 404.5,488C 400.328,488.868 397.162,487.368 395,483.5C 390.01,477.54 385.01,471.54 380,465.5C 378.872,463.655 378.372,461.655 378.5,459.5 Z"/></g>
<g><path style="opacity:0.958" fill="#906af0" d="M 580.5,463.5 C 583.167,463.5 585.833,463.5 588.5,463.5C 584.587,488.826 571.587,507.992 549.5,521C 526.151,533.502 501.485,537.002 475.5,531.5C 475.215,529.712 475.548,528.045 476.5,526.5C 485.812,520.355 493.645,512.688 500,503.5C 505.256,495.716 509.756,487.549 513.5,479C 528.343,477.289 543.01,474.622 557.5,471C 565.525,469.158 573.191,466.658 580.5,463.5 Z"/></g>
<g><path style="opacity:0.955" fill="#906af0" d="M 422.5,472.5 C 446.645,476.726 470.979,479.393 495.5,480.5C 495.457,485.597 493.957,490.264 491,494.5C 482.761,505.071 472.928,513.904 461.5,521C 459.232,522.552 456.732,523.385 454,523.5C 440.06,517.735 427.226,510.068 415.5,500.5C 413.956,495.227 415.122,490.56 419,486.5C 420.481,481.894 421.648,477.227 422.5,472.5 Z"/></g>
<g><path style="opacity:0.958" fill="#906af0" d="M 138.5,481.5 C 140.288,481.215 141.955,481.548 143.5,482.5C 156.049,498.538 171.882,510.205 191,517.5C 192.749,528.49 194.415,539.49 196,550.5C 199.556,564.735 203.723,578.735 208.5,592.5C 198.224,592.348 188.557,589.848 179.5,585C 150.66,565.321 136.327,537.988 136.5,503C 136.865,495.779 137.532,488.613 138.5,481.5 Z"/></g>
<g><path style="opacity:0.965" fill="#e0d4f9" d="M 302.5,489.5 C 303.552,489.351 304.552,489.517 305.5,490C 326.312,512.064 351.978,522.564 382.5,521.5C 380.59,546.142 374.756,569.808 365,592.5C 351.288,591.815 338.788,587.315 327.5,579C 317.485,569.979 309.318,559.479 303,547.5C 302.5,528.17 302.333,508.836 302.5,489.5 Z"/></g>
<g><path style="opacity:0.965" fill="#fefffe" d="M 287.5,490.5 C 288.833,490.5 290.167,490.5 291.5,490.5C 291.667,509.836 291.5,529.17 291,548.5C 278.724,572.831 259.057,587.497 232,592.5C 230.11,592.215 228.777,591.215 228,589.5C 219.382,567.244 213.882,544.244 211.5,520.5C 239.473,522.011 263.806,513.511 284.5,495C 285.883,493.729 286.883,492.229 287.5,490.5 Z"/></g>
<g><path style="opacity:0.949" fill="#906af0" d="M 400.5,516.5 C 408.178,518.508 414.845,522.341 420.5,528C 427.072,532.418 434.072,536.085 441.5,539C 444.006,540.516 444.84,542.682 444,545.5C 432.211,573.979 411.044,590.312 380.5,594.5C 382.459,584.912 385.292,575.579 389,566.5C 393.375,549.896 397.208,533.229 400.5,516.5 Z"/></g>
<g><path style="opacity:0.951" fill="#e0d4f9" d="M 303.5,571.5 C 305.308,571.491 306.975,571.991 308.5,573C 321.618,588.06 337.951,597.727 357.5,602C 358.059,602.725 358.392,603.558 358.5,604.5C 350.926,621.322 341.093,636.656 329,650.5C 321.959,657.709 314.792,664.709 307.5,671.5C 306.311,672.429 304.978,672.762 303.5,672.5C 304.74,638.824 304.74,605.157 303.5,571.5 Z"/></g>
<g><path style="opacity:0.95" fill="#fefffe" d="M 289.5,675.5 C 288.167,675.5 286.833,675.5 285.5,675.5C 264.352,658.182 247.852,637.182 236,612.5C 235.506,610.866 235.34,609.199 235.5,607.5C 254.815,603.848 271.149,595.014 284.5,581C 286.134,580.506 287.801,580.34 289.5,580.5C 289.5,612.167 289.5,643.833 289.5,675.5 Z"/></g>
</svg>
